<?xml version="1.0" encoding="iso-8859-1"?>
<!-- Uploaded to: SVG Repo, www.svgrepo.com, Generator: SVG Repo Mixer Tools -->
<svg version="1.1" id="Layer_1" xmlns="http://www.w3.org/2000/svg" xmlns:xlink="http://www.w3.org/1999/xlink" 
	 viewBox="0 0 512.168 512.168" xml:space="preserve">
<path d="M512.168,99.14V73.7c0-15.816-12.944-28.752-28.752-28.752h-368.24H28.92c-15.816,0-28.752,12.936-28.752,28.752v25.432h512
	V99.14z"/>
<g style="opacity:0.25;">
	<path style="fill:#FFFFFF;" d="M147.2,44.948h-32.024H28.92c-15.816,0-28.752,12.936-28.752,28.752v25.432h115.888L147.2,44.948z"
		/>
</g>
<circle style="fill:#D80E47;" cx="40.696" cy="72.044" r="8.184"/>
<circle style="fill:#05C3D6;" cx="65.256" cy="72.044" r="8.184"/>
<g>
	<circle style="fill:#FFFFFF;" cx="89.816" cy="72.044" r="8.184"/>
	<path style="fill:#FFFFFF;" d="M428.416,86.42H171.04c-7.904,0-14.376-6.472-14.376-14.376l0,0c0-7.904,6.472-14.376,14.376-14.376
		h257.376c7.904,0,14.376,6.472,14.376,14.376l0,0C442.792,79.948,436.328,86.42,428.416,86.42z"/>
</g>
<path d="M180.744,65.484l1.968,7.56c0.432,1.672,0.832,3.2,1.112,4.752h0.096c0.336-1.512,0.832-3.112,1.32-4.72l2.432-7.592h2.28
	l2.304,7.456c0.552,1.784,0.984,3.344,1.32,4.856h0.096c0.24-1.512,0.648-3.08,1.144-4.832l2.12-7.488h2.68l-4.8,14.888h-2.464
	l-2.288-7.096c-0.52-1.656-0.952-3.144-1.32-4.888h-0.064c-0.368,1.784-0.832,3.328-1.352,4.92l-2.4,7.08h-2.464l-4.496-14.888
	h2.776V65.484z"/>
<path d="M203.712,65.484l1.968,7.56c0.432,1.672,0.832,3.2,1.112,4.752h0.096c0.336-1.512,0.832-3.112,1.32-4.72l2.432-7.592h2.28
	l2.304,7.456c0.552,1.784,0.984,3.344,1.32,4.856h0.096c0.24-1.512,0.648-3.08,1.144-4.832l2.12-7.488h2.68l-4.8,14.888h-2.464
	l-2.288-7.096c-0.52-1.656-0.952-3.144-1.32-4.888h-0.064c-0.368,1.784-0.832,3.328-1.352,4.92l-2.4,7.08h-2.464l-4.496-14.888
	h2.776V65.484z"/>
<path d="M226.68,65.484l1.968,7.56c0.432,1.672,0.832,3.2,1.112,4.752h0.096c0.336-1.512,0.832-3.112,1.32-4.72l2.432-7.592h2.28
	l2.304,7.456c0.552,1.784,0.984,3.344,1.32,4.856h0.096c0.24-1.512,0.648-3.08,1.144-4.832l2.12-7.488h2.68l-4.8,14.888h-2.472
	L236,73.268c-0.52-1.656-0.952-3.144-1.32-4.888h-0.064c-0.368,1.784-0.832,3.328-1.352,4.92l-2.4,7.08H228.4l-4.496-14.888h2.776
	V65.484z"/>
<path d="M246.36,78.78c0-1.144,0.768-1.936,1.84-1.936s1.816,0.8,1.816,1.936c0,1.112-0.704,1.936-1.84,1.936
	C247.096,80.716,246.36,79.892,246.36,78.78z"/>
<g>
	<rect x="461.496" y="70.412" style="fill:#FFFFFF;" width="23" height="4"/>
	<polygon style="fill:#FFFFFF;" points="474.76,84.34 471.912,81.516 481.024,72.412 471.912,63.308 474.76,60.484 486.68,72.412 	
		"/>
</g>
<polygon style="fill:#C9C9C9;" points="429.984,67.396 422.328,77.3 414.68,67.396 "/>
<rect y="99.14" style="fill:#ff8400;" width="512" height="368.08"/>
<rect x="16" y="115.188" style="fill:#ff8400;" width="480" height="336"/>
<g style="opacity:0.35;">
	<path style="fill:#ff8400;" d="M492,119.188v328H20v-328L492,119.188 M496,115.188H16v336h480V115.188L496,115.188z"/>
</g>
<g>
	<polygon style="fill:#fff;" points="203.424,367.428 239.304,330.844 239.304,419.124 272.776,419.124 272.776,330.844 
		308.656,367.428 332.536,344.124 256.04,266.124 179.544,344.124 	"/>
	<path style="fill:#FFFFFF;" d="M65.808,222.412c3.368,1.736,8.544,3.456,13.88,3.456c5.752,0,8.792-2.384,8.792-6
		c0-3.448-2.624-5.416-9.288-7.8c-9.192-3.208-15.184-8.296-15.184-16.344c0-9.44,7.88-16.672,20.936-16.672
		c6.248,0,10.84,1.304,14.128,2.792L96.28,191.94c-2.216-1.072-6.16-2.624-11.584-2.624c-5.416,0-8.048,2.464-8.048,5.336
		c0,3.536,3.128,5.088,10.264,7.8c9.784,3.616,14.376,8.712,14.376,16.512c0,9.272-7.136,17.168-22.328,17.168
		c-6.328,0-12.576-1.64-15.688-3.368L65.808,222.412z"/>
	<path style="fill:#FFFFFF;" d="M120.136,179.956v31.864c0,9.536,3.616,14.376,10.016,14.376c6.576,0,10.184-4.6,10.184-14.376
		v-31.864h12.48v31.04c0,17.088-8.624,25.216-23.088,25.216c-13.96,0-22.176-7.72-22.176-25.368v-30.888L120.136,179.956
		L120.136,179.956z"/>
	<path style="fill:#FFFFFF;" d="M161.552,180.7c3.272-0.664,9.936-1.16,16.176-1.16c7.64,0,12.328,0.744,16.344,3.128
		c3.864,2.048,6.656,5.832,6.656,10.84c0,4.928-2.872,9.52-9.12,11.832v0.16c6.328,1.72,11.008,6.496,11.008,13.64
		c0,5.008-2.296,8.952-5.752,11.736c-4.016,3.208-10.76,5.008-21.76,5.008c-6.168,0-10.76-0.408-13.552-0.824V180.7z
		 M173.944,201.884h4.112c6.576,0,10.104-2.712,10.104-6.808c0-4.2-3.208-6.416-8.872-6.416c-2.712,0-4.28,0.168-5.344,0.336
		L173.944,201.884L173.944,201.884z M173.944,226.444c1.24,0.168,2.712,0.168,4.848,0.168c5.664,0,10.68-2.136,10.68-7.968
		c0-5.584-5.016-7.8-11.256-7.8h-4.28v15.6H173.944z"/>
	<path style="fill:#FFFFFF;" d="M209.456,222.412c3.368,1.736,8.544,3.456,13.88,3.456c5.752,0,8.792-2.384,8.792-6
		c0-3.448-2.624-5.416-9.288-7.8c-9.192-3.208-15.184-8.296-15.184-16.344c0-9.44,7.88-16.672,20.936-16.672
		c6.248,0,10.84,1.304,14.128,2.792l-2.792,10.096c-2.216-1.072-6.16-2.624-11.584-2.624c-5.416,0-8.048,2.464-8.048,5.336
		c0,3.536,3.128,5.088,10.264,7.8c9.784,3.616,14.376,8.712,14.376,16.512c0,9.272-7.144,17.168-22.328,17.168
		c-6.328,0-12.576-1.64-15.688-3.368L209.456,222.412z"/>
	<path style="fill:#FFFFFF;" d="M291.96,233.748c-2.304,1.16-7.472,2.384-14.216,2.384c-19.136,0-28.992-11.912-28.992-27.68
		c0-18.888,13.472-29.4,30.232-29.4c6.48,0,11.416,1.304,13.632,2.464l-2.544,9.928c-2.544-1.056-6.08-2.048-10.512-2.048
		c-9.936,0-17.656,6-17.656,18.312c0,11.088,6.576,18.08,17.736,18.08c3.784,0,7.968-0.824,10.432-1.816L291.96,233.748z"/>
	<path style="fill:#FFFFFF;" d="M298.072,180.7c4.016-0.664,10.016-1.16,16.672-1.16c8.216,0,13.96,1.24,17.904,4.352
		c3.272,2.632,5.088,6.496,5.088,11.584c0,7.072-5.008,11.912-9.768,13.632v0.248c3.864,1.568,5.984,5.256,7.384,10.352
		c1.736,6.232,3.456,13.464,4.528,15.6h-12.824c-0.904-1.568-2.216-6.08-3.864-12.896c-1.472-6.896-3.864-8.776-8.952-8.872h-3.784
		v21.768h-12.392V180.7H298.072z M310.464,204.516h4.928c6.248,0,9.936-3.128,9.936-7.968c0-5.096-3.448-7.64-9.192-7.72
		c-3.04,0-4.76,0.248-5.672,0.408L310.464,204.516L310.464,204.516z"/>
	<path style="fill:#FFFFFF;" d="M357.24,179.956v55.352h-12.56v-55.352H357.24z"/>
	<path style="fill:#FFFFFF;" d="M366,180.7c3.272-0.664,9.936-1.16,16.176-1.16c7.64,0,12.328,0.744,16.344,3.128
		c3.864,2.048,6.656,5.832,6.656,10.84c0,4.928-2.872,9.52-9.12,11.832v0.16c6.328,1.72,11.008,6.496,11.008,13.64
		c0,5.008-2.296,8.952-5.752,11.736c-4.016,3.208-10.76,5.008-21.76,5.008c-6.168,0-10.76-0.408-13.552-0.824L366,180.7L366,180.7z
		 M378.392,201.884h4.112c6.576,0,10.104-2.712,10.104-6.808c0-4.2-3.208-6.416-8.872-6.416c-2.712,0-4.28,0.168-5.344,0.336
		V201.884z M378.392,226.444c1.24,0.168,2.712,0.168,4.848,0.168c5.664,0,10.68-2.136,10.68-7.968c0-5.584-5.016-7.8-11.256-7.8
		h-4.28v15.6H378.392z"/>
	<path style="fill:#FFFFFF;" d="M446.44,211.9h-20.376v13.144h22.744v10.264h-35.312v-55.352h34.16v10.264h-21.6v11.504h20.384
		V211.9z"/>
</g>
</svg>